<svg width="200" height="100" viewBox="0 0 200 100" fill="none" xmlns="http://www.w3.org/2000/svg">
<mask id="mask0_131_866" style="mask-type:alpha" maskUnits="userSpaceOnUse" x="0" y="0" width="200" height="100">
<rect width="200" height="100" fill="#D9D9D9"/>
</mask>
<g mask="url(#mask0_131_866)">
<path d="M144.179 92.8354C143.794 92.7019 143.411 92.5467 143.019 92.435C137.459 90.824 134.348 85.9786 135.157 80.174C135.879 74.981 140.536 71.1133 146.124 71.0668C151.767 71.0233 156.437 74.773 157.227 79.9847C158.102 85.7334 155.012 90.6936 149.521 92.3698C149.082 92.5033 148.656 92.6802 148.224 92.8354H144.179ZM146.223 88.5239C149.826 88.5239 152.502 85.7861 152.533 82.0644C152.567 78.2154 149.814 75.3566 146.099 75.3814C142.521 75.4031 139.852 78.1968 139.855 81.8999C139.858 85.603 142.605 88.5239 146.223 88.5239Z" fill="#737373"/>
<path d="M170 61.7957C169.418 61.4853 168.665 61.3084 168.282 60.8366C165.243 57.1117 162.278 53.3248 159.285 49.5596C158.927 49.0526 158.436 48.6533 157.866 48.4049V61.7336L157.425 61.9168C157.179 61.6529 156.728 61.3922 156.725 61.1252C156.681 56.1308 156.694 51.1333 156.694 46.1358L157.098 45.8254C157.605 46.1979 158.224 46.4835 158.607 46.9553C161.531 50.5746 164.409 54.2343 167.302 57.8784C167.679 58.3533 168.071 58.8096 168.73 59.6167V46.1948L170 45.9651V61.7957Z" fill="#737373"/>
<path d="M30 45.9634H41.0164V47.0746C40.1049 47.0746 40.4938 47.0653 40.1049 47.0746C37.7747 47.1336 35.4382 47.0995 33.108 47.1119C32.5511 47.1119 31.9942 47.1615 31.3316 47.1926V53.68H40.1391V54.6423C39.5545 54.6423 39.5865 54.6308 38.7733 54.6423C36.3467 54.6764 33.92 54.6423 31.3067 54.6423V61.6915L30 61.794V45.9634Z" fill="#737373"/>
<path d="M111.824 7.16406C112.032 7.30064 112.231 7.47447 112.446 7.5738C114.425 8.59192 115.283 10.2029 114.838 12.0778C114.616 13.013 114.077 13.8431 113.313 14.4278C112.548 15.0125 111.604 15.3161 110.642 15.2873C109.651 15.3018 108.686 14.9763 107.908 14.3655C107.13 13.7546 106.586 12.8954 106.367 11.9319C105.913 9.9577 106.694 8.38705 108.647 7.4248C108.779 7.34724 108.905 7.26009 109.024 7.16406L111.824 7.16406ZM113.009 11.5097C113.009 9.83354 111.83 8.36533 110.461 8.3436C109.024 8.31256 107.446 10.0788 107.468 11.7022C107.465 12.0628 107.535 12.4203 107.674 12.7533C107.813 13.0863 108.018 13.3878 108.276 13.6398C108.535 13.8917 108.842 14.0889 109.179 14.2195C109.516 14.35 109.876 14.4113 110.237 14.3996C110.989 14.3825 111.703 14.0686 112.222 13.5268C112.742 12.9849 113.025 12.2595 113.009 11.5097Z" fill="#737373"/>
<path d="M130.734 92.3873H126.904L117.154 79.6608L116.806 79.7756V92.3501H112.276V71.5747H116.563L125.934 83.8543L126.245 83.786V71.5654H130.722L130.734 92.3873Z" fill="#737373"/>
<path d="M59.7651 92.3755L68.7158 71.355H73.0713L82.0095 92.3383H77.1904C76.5962 90.9508 75.946 89.4453 75.2833 87.8685H66.3825L64.4536 92.3755H59.7651ZM71.0087 77.3147L70.6167 77.3644C69.8109 79.3727 69.0051 81.381 68.1278 83.5508H73.5567C72.6544 81.35 71.83 79.3199 71.0087 77.3147Z" fill="#737373"/>
<path d="M48.0944 86.025V92.379H43.7046V71.2715C47.5126 71.4391 51.2552 71.2994 54.9046 71.855C58.5539 72.4107 60.489 75.6389 60.1779 79.4879C59.901 83.0265 57.2752 85.6463 53.4392 86.0064C51.7779 86.1585 50.0668 86.025 48.0944 86.025ZM48.2904 75.6978V81.937C49.877 81.937 51.3299 82.0549 52.7548 81.909C54.4783 81.729 55.5361 80.3756 55.5019 78.7119C55.4677 77.0481 54.3881 75.8468 52.5775 75.7165C51.1961 75.6202 49.8024 75.6978 48.2904 75.6978Z" fill="#737373"/>
<path d="M119.451 37.7513C118.882 35.3394 118.48 32.881 117.706 30.5437C116.607 27.2255 115.478 23.8762 113.913 20.7629C112.454 17.8668 110.842 17.9009 108.624 20.2786C105.936 23.1623 104.984 26.6916 104.683 30.4909C104.493 32.8965 104.244 35.2991 104.02 37.7047L103.441 37.9779C103.077 37.6054 102.533 37.295 102.383 36.848C101.833 35.237 101.54 33.5298 100.915 31.9498C100.176 29.9728 99.2645 28.0647 98.1896 26.2477C97.0416 24.3853 95.9527 24.3853 94.1825 25.7107C92.1385 27.2627 91.199 29.3486 90.9376 31.8256C90.7292 33.806 90.4896 35.7833 90.2625 37.7637L89.687 38.0182C89.2888 37.6395 88.7536 37.3322 88.5141 36.8728C87.8919 35.7461 87.503 34.4858 86.831 33.3963C85.6114 31.4221 83.7199 31.4687 82.5968 33.4708C81.8252 34.8645 81.1874 36.3327 80.5123 37.7202H55.6235L55.5239 37.2484C56.1461 37.1242 56.7684 36.8914 57.3906 36.8945C64.5928 36.9132 71.7919 36.9659 78.9941 37.0094C79.1629 37.0034 79.3311 36.9879 79.4981 36.9628C80.195 35.6002 80.839 34.2002 81.6137 32.8748C83.3185 29.9539 85.7328 29.9042 87.699 32.6979C87.9914 33.1107 88.2901 33.5205 88.6728 34.0481C89.6061 31.7543 90.4803 29.6125 91.3639 27.4738C91.6376 26.8064 91.899 26.1266 92.235 25.4872C93.8932 22.3304 96.8674 21.9517 99.0296 24.7546C100.153 26.2135 100.918 27.9456 101.83 29.5659C102.119 30.0874 102.34 30.643 102.738 31.4935C103.78 28.3709 104.642 25.5741 105.656 22.8301C106.207 21.3402 106.817 19.8037 107.744 18.5373C109.648 15.933 112.218 15.9174 114.221 18.4162C115.13 19.5473 115.892 20.7884 116.489 22.11C118.598 26.7847 120.512 31.5308 120.845 36.8232C124.223 36.8232 127.521 36.8014 130.819 36.8232C134.863 36.8542 138.908 36.8976 142.952 36.9908C143.737 37.0228 144.495 37.2864 145.13 37.7482L119.451 37.7513Z" fill="#737373"/>
<path d="M87.5337 75.7233H81.2119V71.5483H98.3448V75.6891H92.1786V92.3609H87.5337V75.7233Z" fill="#737373"/>
<path d="M102.372 92.3768V71.5518H106.771V92.3768H102.372Z" fill="#737373"/>
<path d="M74.9255 62.0873C73.7215 60.6129 72.5082 59.1416 71.3135 57.6578C70.0504 56.0841 68.8028 54.4979 67.5459 52.918C66.3326 51.3939 65.1131 49.8729 63.598 47.9732C63.5513 48.9603 63.5046 49.4942 63.5046 50.0281C63.5046 53.4922 63.5046 56.9594 63.4766 60.4235C63.4766 60.9233 63.1904 61.4199 63.0348 61.9166L62.4624 61.7614V45.6204C63.2091 46.1822 63.7815 46.4585 64.1424 46.9085C67.1664 50.6551 70.1468 54.4327 73.1428 58.201C73.4539 58.5921 73.7931 58.9615 74.4059 59.6786V45.7104C75.0282 46.1822 75.5633 46.3871 75.5633 46.5981C75.6099 51.6422 75.6006 56.6894 75.6006 61.7334L74.9255 62.0873Z" fill="#737373"/>
<path d="M80.4805 45.8425C83.0876 45.9791 85.5454 45.8612 87.9067 46.2802C91.7769 46.9693 94.1787 50.1758 94.1289 54.0403C94.1324 55.8679 93.4893 57.638 92.3129 59.0389C91.1365 60.4398 89.5023 61.3814 87.6982 61.698C86.8818 61.8316 86.0553 61.8939 85.228 61.8842C83.688 61.9121 82.148 61.8842 80.4836 61.8842L80.4805 45.8425ZM81.6254 60.9437C83.8591 60.7885 85.9436 60.8537 87.9347 60.4594C90.7347 59.9038 92.6169 57.4889 92.8378 54.7356C93.0898 51.5664 91.6742 48.9652 88.9831 47.767C86.6125 46.7148 84.1516 47.1307 81.6254 47.2176V60.9437Z" fill="#737373"/>
<path d="M144.551 62.1521C139.99 62.1304 136.649 58.6725 136.646 53.973C136.643 49.2735 140.087 45.6945 144.67 45.6914C149.252 45.6883 152.709 49.2642 152.668 53.9823C152.628 58.7004 149.174 62.177 144.551 62.1521ZM151.396 53.9606C151.396 49.8415 148.543 46.8213 144.654 46.8027C140.765 46.784 137.872 49.8353 137.875 53.9419C137.875 57.9772 140.83 61.1216 144.648 61.1402C148.465 61.1588 151.396 58.0703 151.393 53.9606H151.396Z" fill="#737373"/>
<path d="M99.1877 57.5207C97.9433 58.8896 98.0677 61.0562 96.4469 61.9471L96.0269 61.6708C96.0505 61.4784 96.0943 61.2891 96.1575 61.1059C98.466 56.0866 100.784 51.0705 103.26 45.7036C103.802 46.0357 104.458 46.1972 104.642 46.5852C106.959 51.4864 109.209 56.4219 111.467 61.3511C111.505 61.4318 111.467 61.5497 111.467 61.7205C109.949 62.1426 110.08 60.7241 109.65 60.0257C109.199 59.213 108.792 58.3768 108.431 57.5207H99.1877ZM107.899 56.2791C106.542 53.293 105.248 50.4404 103.755 47.1625C102.268 50.4155 100.974 53.2433 99.5829 56.2791H107.899Z" fill="#737373"/>
<path d="M57.3583 45.9644C57.5014 46.3617 57.7627 46.756 57.7658 47.1533C57.797 50.0493 57.8561 52.9485 57.7658 55.8446C57.6321 59.675 55.2987 62.0247 51.6867 62.1551C47.7387 62.301 45.1845 60.2927 44.8423 56.3505C44.5623 53.2186 44.7148 50.0493 44.7334 46.8987C44.7334 46.5666 44.7338 45.8279 44.7338 45.8279H45.9187V47.6996C45.9187 47.6996 45.8565 52.9765 45.9467 55.6118C46.0805 59.6098 48.9085 61.7764 52.757 60.9383C54.913 60.4665 56.3347 58.9828 56.4903 56.5678C56.6801 53.6842 56.6085 50.7819 56.6645 47.8765C56.6645 47.2774 56.7298 46.6784 56.7672 46.0793L57.3583 45.9644Z" fill="#737373"/>
<path d="M127.617 48.3239L126.895 48.9447C122.627 46.1045 119.027 46.1511 116.526 49.0316C114.18 51.7352 114.208 56.1957 116.582 58.8776C119.183 61.8141 122.683 61.8016 127.054 58.7876L127.654 59.3526C124.854 62.767 119.5 63.1612 116.227 60.2217C112.758 57.1176 112.625 51.3007 115.947 47.97C119.08 44.8256 124.447 44.9281 127.617 48.3239Z" fill="#737373"/>
<path d="M117.732 70.0235L115.598 69.3716C115.928 65.9572 117.854 64.6131 120.903 65.4854C121.301 65.5971 121.69 65.7368 122.082 65.8765C124.126 66.5935 124.303 66.5532 125.765 64.9763C126.216 65.1067 126.699 65.2308 127.193 65.3923C127.419 65.4801 127.638 65.5839 127.85 65.7027C127.143 69.3965 125.333 70.455 121.845 69.2661C120.383 68.7788 118.871 67.8755 117.732 70.0235Z" fill="#737373"/>
<path d="M96.7111 13.9939C99.2995 13.9939 100.924 15.3566 100.902 17.5046C100.874 20.1865 98.8982 22.2724 96.4093 22.2506C94.0604 22.2289 92.1751 20.1616 92.1782 17.6101C92.1782 15.49 94.048 13.9939 96.7111 13.9939ZM99.1004 17.8057C99.1222 16.0022 97.9804 14.6054 96.4622 14.5868C94.944 14.5681 93.628 16.2226 93.5813 18.2092C93.544 19.7612 94.7076 20.9128 96.3253 20.8973C97.9431 20.8818 99.0662 19.5812 99.1004 17.8119V17.8057Z" fill="#737373"/>
<path d="M84.6607 29.1154C82.8314 29.2675 81.2385 28.8764 80.4732 26.986C79.851 25.4123 80.6754 23.6368 82.4799 22.3859C84.2843 21.1349 86.1976 21.0977 87.6598 22.2307C89.1221 23.3636 89.7225 25.3006 89.0132 26.9333C88.1763 28.8236 86.5896 29.3172 84.6607 29.1154ZM84.0727 22.4976C82.7007 22.5442 81.8079 23.6182 81.895 25.1267C82.0132 27.3803 83.1861 29.0223 84.6732 29.0099C86.1603 28.9975 87.3021 27.4051 87.1963 25.5334C87.0936 23.8665 85.6314 22.4448 84.0727 22.4976Z" fill="#737373"/>
<path d="M132.289 46.0955V61.6467L131.912 61.9136C131.682 61.6032 131.253 61.2618 131.249 60.9359C131.206 56.2426 131.206 51.5482 131.249 46.8528C131.249 46.5424 131.676 46.232 131.903 45.8999L132.289 46.0955Z" fill="#737373"/>
<path d="M144.505 43.8938L146.207 41.6465L147.597 42.2394L144.919 44.3191L144.505 43.8938Z" fill="#737373"/>
</g>
</svg>
